<svg width="256" height="256" viewBox="0 0 256 256" fill="none" xmlns="http://www.w3.org/2000/svg">
<g clip-path="url(#clip0_2001_36)">
<path fill-rule="evenodd" clip-rule="evenodd" d="M117.333 52.6667C69.8368 52.6667 31.3333 91.1702 31.3333 138.667C31.3333 186.163 69.8368 224.667 117.333 224.667C117.823 224.667 118.312 224.663 118.801 224.654L115.753 236.032L139.401 242.366C132.283 243.874 124.901 244.667 117.333 244.667C58.7912 244.667 11.3333 197.209 11.3333 138.667C11.3333 80.1245 58.7912 32.6667 117.333 32.6667C174.962 32.6667 221.85 78.6554 223.299 135.935L202.949 130.482C198.827 86.8246 162.069 52.6667 117.333 52.6667ZM128 228.96L129.374 223.83C134.402 223.126 139.29 221.987 144 220.452V233.246L128 228.96ZM211.029 143L203.304 140.93C203.286 141.622 203.26 142.312 203.226 143H211.029Z" fill="#1B6499"/>
<path d="M153.067 49.6L173.867 28.8C178.684 24.0059 185.204 21.3146 192 21.3146C198.796 21.3146 205.316 24.0059 210.133 28.8L227.2 45.8667C229.587 48.245 231.48 51.071 232.772 54.1828C234.064 57.2945 234.73 60.6307 234.73 64C234.73 67.3693 234.064 70.7055 232.772 73.8172C231.48 76.9289 229.587 79.755 227.2 82.1333L206.4 102.933" stroke="#1B6499" stroke-width="20" stroke-linecap="round" stroke-linejoin="round"/>
<path d="M234.667 21.3333L218.667 37.3333" stroke="#1B6499" stroke-width="20" stroke-linecap="round" stroke-linejoin="round"/>
<path d="M202.325 209.899L137.739 192.597L128 228.96L228.949 256L243.243 202.72L206.88 192.96L202.325 209.899ZM155.051 128L140.768 181.291L177.12 191.051L181.675 174.101L246.261 191.413L256 155.051L155.051 128Z" fill="#47B2FF"/>
</g>
<defs>
<clipPath id="clip0_2001_36">
<rect width="256" height="256" fill="white"/>
</clipPath>
</defs>
</svg>
